<?xml version="1.0" encoding="utf-8"?>
<!-- Generator: Adobe Illustrator 21.0.0, SVG Export Plug-In . SVG Version: 6.00 Build 0)  -->
<svg version="1.1" id="Layer_1" xmlns="http://www.w3.org/2000/svg" xmlns:xlink="http://www.w3.org/1999/xlink" x="0px" y="0px"
	 viewBox="0 0 212 73" style="enable-background:new 0 0 212 73;" xml:space="preserve">
<style type="text/css">
	.st0{fill:#CEAA11;}
	.st1{fill:#9A9A9A;}
	.st2{fill:#C19E0E;}
	.st3{fill:none;}
	.st4{fill:#C4A10E;}
</style>
<line class="st0" x1="102.4" y1="17" x2="95" y2="24"/>
<path class="st1" d="M146,56h-2v0C144.7,56,145.3,56,146,56z"/>
<rect x="175" y="6" class="st2" width="12" height="36"/>
<path class="st2" d="M173,5l-9,12h-20.5c-11.1,0-20.1,5.6-20.5,12.5c-2.2-4.4-6.2-7.6-10.8-8.5C116.6,12.3,127.2,6,140,5.1
	c1-0.1,2-0.1,3-0.1H173z"/>
<path class="st2" d="M212,44l-7.6,12h-62.7c-0.6,0-1.2,0-1.8,0c-6.7-0.3-12.8-2.6-17.5-6.1c2-3,3.2-6.8,3.2-11
	c0-0.9-0.1-1.7-0.2-2.5c2.9,4.5,9.3,7.6,16.7,7.6H212z"/>
<path class="st1" d="M146,6c-1,0-2,0-3,0.1V6H146z"/>
<line class="st3" x1="226" y1="42" x2="224.6" y2="44"/>
<line class="st3" x1="216.1" y1="56" x2="214" y2="59"/>
<path class="st0" d="M124,38.9c0,4.2-1.2,8-3.3,11c-2.6,3.7-6.5,6.1-10.9,6.1H48.4l7.7-13.3h53.7c1.2,0,2.2-1,2.6-2.3
	c0.1-0.5,0.2-1,0.2-1.5c0-1.7-0.8-3.1-2-3.6c-0.3-0.1-0.5-0.2-0.8-0.2H57.2c-7,0-12.8-5.7-14-13.3C43.1,20.9,43,19.9,43,19
	c0-0.3,0-0.6,0-1h17c0,0.1,0,0.3,0,0.4c0,1.8,1.4,3.3,3.2,3.4v0h46.5c0.8,0,1.6,0.1,2.4,0.2c4.3,0.9,7.9,4.1,10,8.5
	c0.8,1.8,1.4,3.7,1.7,5.8C123.9,37.2,124,38,124,38.9z"/>
<polygon class="st4" points="124.7,5 112.9,15 4,15 13,5 "/>
<rect x="27" y="14" class="st4" width="12" height="42"/>
<line class="st3" x1="120" y1="0" x2="114.7" y2="5"/>
<line class="st3" x1="103.1" y1="16" x2="102" y2="17"/>
<line class="st3" x1="15" y1="3" x2="13" y2="5"/>
<line class="st3" x1="4" y1="14" x2="0" y2="18"/>
</svg>
